<mxfile host="Electron" agent="Mozilla/5.0 (Windows NT 10.0; Win64; x64) AppleWebKit/537.36 (KHTML, like Gecko) draw.io/28.1.2 Chrome/138.0.7204.243 Electron/37.4.0 Safari/537.36" version="28.1.2">
  <diagram name="Page-1" id="97916047-d0de-89f5-080d-49f4d83e522f">
    <mxGraphModel dx="1034" dy="689" grid="1" gridSize="10" guides="1" tooltips="1" connect="1" arrows="1" fold="1" page="1" pageScale="1.5" pageWidth="1169" pageHeight="827" background="none" math="0" shadow="0">
      <root>
        <mxCell id="0" />
        <mxCell id="1" parent="0" />
        <mxCell id="GJDAKbrFz1hXYn9pr5rE-1" value="monaco-languageclient" style="rounded=1;whiteSpace=wrap;html=1;verticalAlign=top;fontSize=24;fillColor=#76608a;strokeColor=#432D57;fontColor=#ffffff;align=left;spacingLeft=10;fontStyle=1;opacity=80;" parent="1" vertex="1">
          <mxGeometry x="120" y="170" width="750" height="90" as="geometry" />
        </mxCell>
        <mxCell id="PFJihABpT5-H_5MAtVqF-4" value="&lt;b&gt;vscode-languageclient&lt;/b&gt;" style="rounded=1;whiteSpace=wrap;html=1;verticalAlign=top;fontSize=24;fillColor=#AD8ECC;strokeColor=#432D57;fontColor=#ffffff;align=left;spacingLeft=10;opacity=80;" parent="1" vertex="1">
          <mxGeometry x="460" y="180" width="390" height="70" as="geometry" />
        </mxCell>
        <mxCell id="PFJihABpT5-H_5MAtVqF-9" value="&lt;font style=&quot;font-size: 36px;&quot;&gt;monaco api&lt;/font&gt;" style="rounded=1;whiteSpace=wrap;html=1;" parent="1" vertex="1">
          <mxGeometry x="140" y="380" width="290" height="90" as="geometry" />
        </mxCell>
        <mxCell id="PFJihABpT5-H_5MAtVqF-10" value="&lt;font style=&quot;font-size: 36px;&quot;&gt;vscode api&lt;/font&gt;" style="rounded=1;whiteSpace=wrap;html=1;" parent="1" vertex="1">
          <mxGeometry x="510" y="380" width="340" height="90" as="geometry" />
        </mxCell>
        <mxCell id="eTjOEnYzOBb-eKVmH-RZ-1" value="" style="endArrow=block;html=1;rounded=0;endFill=1;strokeWidth=3;exitX=0.659;exitY=-0.011;exitDx=0;exitDy=0;exitPerimeter=0;entryX=0.282;entryY=1.012;entryDx=0;entryDy=0;entryPerimeter=0;" parent="1" edge="1" target="GJDAKbrFz1hXYn9pr5rE-1">
          <mxGeometry width="50" height="50" relative="1" as="geometry">
            <mxPoint x="331.11" y="380" as="sourcePoint" />
            <mxPoint x="331" y="280" as="targetPoint" />
          </mxGeometry>
        </mxCell>
        <mxCell id="eTjOEnYzOBb-eKVmH-RZ-5" value="&lt;span style=&quot;font-size: 24px; background-color: light-dark(#ffffff, var(--ge-dark-color, #121212)); color: light-dark(rgb(0, 0, 0), rgb(255, 255, 255));&quot;&gt;monaco&lt;/span&gt;&lt;div&gt;&lt;span style=&quot;font-size: 24px;&quot;&gt;to LSP&lt;/span&gt;&lt;/div&gt;" style="edgeLabel;html=1;align=center;verticalAlign=middle;resizable=0;points=[];" parent="eTjOEnYzOBb-eKVmH-RZ-1" vertex="1" connectable="0">
          <mxGeometry x="0.1557" y="-1" relative="1" as="geometry">
            <mxPoint x="59" y="12" as="offset" />
          </mxGeometry>
        </mxCell>
        <mxCell id="eTjOEnYzOBb-eKVmH-RZ-2" value="" style="endArrow=block;html=1;rounded=0;endFill=1;strokeWidth=3;entryX=0.345;entryY=0.008;entryDx=0;entryDy=0;entryPerimeter=0;exitX=0.16;exitY=1.02;exitDx=0;exitDy=0;exitPerimeter=0;" parent="1" target="PFJihABpT5-H_5MAtVqF-9" edge="1" source="GJDAKbrFz1hXYn9pr5rE-1">
          <mxGeometry width="50" height="50" relative="1" as="geometry">
            <mxPoint x="220" y="260" as="sourcePoint" />
            <mxPoint x="220" y="370" as="targetPoint" />
          </mxGeometry>
        </mxCell>
        <mxCell id="eTjOEnYzOBb-eKVmH-RZ-3" value="&lt;font style=&quot;font-size: 24px;&quot;&gt;LSP&amp;nbsp;&lt;/font&gt;&lt;font style=&quot;background-color: light-dark(#ffffff, var(--ge-dark-color, #121212)); color: light-dark(rgb(0, 0, 0), rgb(255, 255, 255)); font-size: 24px;&quot;&gt;to&lt;/font&gt;&lt;div&gt;&lt;span style=&quot;background-color: light-dark(#ffffff, var(--ge-dark-color, #121212)); color: light-dark(rgb(0, 0, 0), rgb(255, 255, 255)); font-size: 24px;&quot;&gt;monaco&lt;/span&gt;&lt;/div&gt;" style="edgeLabel;html=1;align=center;verticalAlign=middle;resizable=0;points=[];" parent="eTjOEnYzOBb-eKVmH-RZ-2" vertex="1" connectable="0">
          <mxGeometry x="-0.3626" y="-1" relative="1" as="geometry">
            <mxPoint x="-59" y="25" as="offset" />
          </mxGeometry>
        </mxCell>
        <mxCell id="eTjOEnYzOBb-eKVmH-RZ-6" value="" style="endArrow=block;html=1;rounded=0;endFill=1;strokeWidth=3;exitX=0.56;exitY=0.98;exitDx=0;exitDy=0;entryX=0.5;entryY=0;entryDx=0;entryDy=0;exitPerimeter=0;" parent="1" source="PFJihABpT5-H_5MAtVqF-4" target="PFJihABpT5-H_5MAtVqF-10" edge="1">
          <mxGeometry width="50" height="50" relative="1" as="geometry">
            <mxPoint x="760" y="260" as="sourcePoint" />
            <mxPoint x="760" y="560" as="targetPoint" />
          </mxGeometry>
        </mxCell>
      </root>
    </mxGraphModel>
  </diagram>
</mxfile>
